<?xml version="1.0" encoding="UTF-8"?>
<!DOCTYPE svg PUBLIC "-//W3C//DTD SVG 1.1//EN" "http://www.w3.org/Graphics/SVG/1.1/DTD/svg11.dtd">
<!-- Creator: CorelDRAW X5 -->
<svg xmlns="http://www.w3.org/2000/svg" xml:space="preserve" width="112.657mm" height="130mm" style="shape-rendering:geometricPrecision; text-rendering:geometricPrecision; image-rendering:optimizeQuality; fill-rule:evenodd; clip-rule:evenodd"
viewBox="0 0 11266 13000"
 xmlns:xlink="http://www.w3.org/1999/xlink">
 <defs>
  <style type="text/css">
   <![CDATA[
    .fil2 {fill:#11894A}
    .fil1 {fill:#118A4B}
    .fil5 {fill:#449E6A}
    .fil3 {fill:#44B34B}
    .fil4 {fill:#FEFEFE}
    .fil0 {fill:white}
   ]]>
  </style>
 </defs>
 <g id="Layer_x0020_1">
  <metadata id="CorelCorpID_0Corel-Layer"/>
  <path class="fil0" d="M6808 6570c7,12 154,106 180,124l0 191 -916 0 0 916 -804 0 -1 -916 -188 -1c16,-20 434,-345 503,-402 83,-68 168,-130 251,-199 79,-66 173,-134 249,-197l115 -2c83,1 -3,-12 109,-12l660 -1c30,1 23,6 25,9l-2 500c-12,-2 -4,1 -7,-6 -14,-3 -5,-1 -17,-8 -12,-7 -4,-5 -15,-7 -38,1 -94,-2 -139,-2 -3,8 -6,-11 -2,12zm-1541 -1399c10,-12 21,-7 47,-7 134,0 694,-5 758,1l0 795c-2,18 1,6 -8,12 -4,9 -159,129 -180,146 -61,50 -122,98 -184,146 -64,49 -120,97 -184,146 -16,12 -30,24 -46,36 -17,13 -28,23 -45,36 -144,114 -320,249 -457,362 -66,55 -45,41 -127,41 -141,0 -367,6 -490,-1l2 -803 915 -1 0 -909zm-1249 401c0,611 -4,1235 0,1844l0 16c159,86 1599,930 1615,929 9,0 732,-420 808,-464l806 -466 0 -1863 -1210 -699c-68,-40 -134,-78 -202,-117 -26,-15 -191,-115 -203,-115 -11,0 -731,419 -809,464 -35,20 -798,454 -807,471z"/>
  <path class="fil1" d="M4018 5572c9,-17 772,-451 807,-471 78,-45 798,-464 809,-464 12,0 177,100 203,115 68,38 133,77 202,117l1210 699 0 1863 -806 466c-76,44 -799,464 -808,464 -15,0 -1456,-843 -1615,-929l0 -16c-4,-609 0,-1234 0,-1844zm-146 1944c33,23 392,227 440,255 401,234 811,465 1211,699l110 62c50,-25 164,-95 223,-128 75,-42 145,-84 219,-126 293,-168 586,-342 879,-508 43,-24 409,-239 439,-252l-1 -2035c-25,-19 -850,-492 -880,-510 -32,-19 -869,-506 -881,-505l-881 507c-145,87 -295,170 -441,254l-437 253 0 2033z"/>
  <path class="fil2" d="M6065 5972c10,-28 1,-702 4,-806 -131,11 -751,-13 -801,5l0 909 -915 1 -2 803c123,7 348,1 490,1 83,0 61,14 127,-41 137,-113 313,-249 457,-362 17,-13 28,-23 45,-36 15,-12 30,-24 46,-36 64,-49 120,-97 184,-146 62,-48 123,-96 184,-146 21,-17 177,-136 180,-146z"/>
  <path class="fil3" d="M6103 6454c47,-23 102,-72 203,-25 130,61 148,256 6,334 -68,37 -157,23 -204,-22 -29,10 -97,78 -207,24 -186,-91 -100,-380 109,-352 48,6 63,23 94,41zm705 116c-23,-8 -69,-44 -91,-59 -71,-46 -612,-417 -636,-425 -76,64 -169,131 -249,197 -83,69 -168,131 -251,199 -70,57 -488,382 -503,402l188 1 1 916 804 0 0 -916 916 0 0 -191c-25,-18 -173,-112 -180,-124z"/>
  <path class="fil2" d="M6949 6560c11,2 3,-1 15,7 12,7 3,5 17,8 3,7 -5,4 7,6l2 -500 -744 -1c5,17 314,214 356,243 58,40 116,78 174,117l132 89c14,9 32,18 41,31z"/>
  <path class="fil4" d="M6081 6086c24,8 565,379 636,425 23,15 68,51 91,59 -4,-23 -1,-4 2,-12 45,0 101,3 139,2 -9,-12 -27,-22 -41,-31l-132 -89c-59,-39 -116,-77 -174,-117 -43,-29 -352,-226 -356,-243l744 1c-2,-3 5,-8 -25,-9l-660 1c-111,0 -25,12 -109,12l-115 2z"/>
  <path class="fil4" d="M6103 6678c-34,-42 -30,-120 0,-161 27,18 32,86 20,127 -2,7 -4,12 -8,19l-12 15zm30 -194c30,-38 111,-45 159,-19 112,60 100,213 1,263 -70,35 -108,11 -161,-13 4,-20 19,-35 26,-55 30,-90 -3,-124 -25,-176zm-57 230c-26,12 -34,25 -74,30 -86,11 -168,-53 -165,-151 2,-64 41,-109 83,-129 49,-23 125,-16 156,20 -22,49 -56,94 -24,180 7,20 20,34 25,50zm27 -260c-31,-19 -46,-35 -94,-41 -209,-28 -295,261 -109,352 111,54 178,-15 207,-24 47,46 137,60 204,22 142,-78 124,-273 -6,-334 -101,-47 -155,2 -203,25z"/>
  <path class="fil2" d="M6133 6484c22,52 55,86 25,176 -7,21 -21,35 -26,55 53,25 91,49 161,13 99,-50 111,-203 -1,-263 -49,-26 -130,-19 -159,19z"/>
  <path class="fil1" d="M6076 6714c-5,-16 -17,-30 -25,-50 -32,-86 2,-131 24,-180 -30,-37 -106,-43 -156,-20 -42,20 -81,65 -83,129 -3,98 80,162 165,151 40,-5 48,-18 74,-30z"/>
  <path class="fil5" d="M6065 5972c9,-6 6,7 8,-12l0 -795c-64,-6 -624,-1 -758,-1 -27,0 -38,-4 -47,7 50,-18 670,6 801,-5 -3,104 6,777 -4,806z"/>
  <path class="fil1" d="M6103 6678l12 -15c4,-7 5,-13 8,-19 13,-41 8,-109 -20,-127 -30,42 -34,120 0,161z"/>
 </g>
</svg>
